<svg width="198" height="198" viewBox="0 0 198 198" fill="none" xmlns="http://www.w3.org/2000/svg">
<path d="M98.9796 0H98.5299C44.1133 0 0 44.1264 0 98.559V99.0089C0 153.441 44.1133 197.568 98.5299 197.568H98.9796C153.396 197.568 197.51 153.441 197.51 99.0089V98.559C197.51 44.1264 153.396 0 98.9796 0Z" fill="#5865F2"/>
<path d="M148.179 53.4291C139.087 49.2553 129.344 46.182 119.151 44.4239C118.964 44.3893 118.777 44.4723 118.687 44.6454C117.435 46.8742 116.044 49.7882 115.075 52.0724C104.114 50.432 93.2088 50.432 82.4694 52.0724C81.4937 49.7329 80.0544 46.8742 78.795 44.6454C78.6981 44.4792 78.5113 44.3962 78.3314 44.4239C68.1456 46.182 58.3957 49.2553 49.3032 53.4291C49.2271 53.4637 49.1579 53.5191 49.1094 53.5952C30.6199 81.2269 25.5545 108.18 28.0387 134.801C28.0526 134.933 28.1218 135.057 28.2256 135.134C40.425 144.097 52.2441 149.538 63.8415 153.144C64.0284 153.199 64.2221 153.13 64.3397 152.978C67.0799 149.233 69.5295 145.281 71.6262 141.121C71.7508 140.879 71.6261 140.588 71.377 140.491C67.4951 139.017 63.8068 137.224 60.2501 135.189C59.9664 135.023 59.9457 134.621 60.2018 134.428C60.9491 133.867 61.6964 133.285 62.4091 132.697C62.5406 132.586 62.7204 132.566 62.8727 132.635C86.2129 143.294 111.484 143.294 134.547 132.635C134.699 132.559 134.879 132.586 135.011 132.69C135.724 133.279 136.471 133.867 137.225 134.428C137.481 134.621 137.467 135.023 137.184 135.189C133.634 137.265 129.939 139.024 126.05 140.491C125.794 140.588 125.683 140.879 125.808 141.128C127.953 145.274 130.395 149.226 133.087 152.978C133.198 153.137 133.398 153.206 133.585 153.151C145.238 149.545 157.057 144.104 169.256 135.14C169.36 135.064 169.43 134.94 169.443 134.815C172.419 104.041 164.461 77.3091 148.359 53.609C148.317 53.5329 148.255 53.4706 148.172 53.436L148.179 53.4291ZM75.0998 118.591C68.0693 118.591 62.2846 112.139 62.2846 104.214C62.2846 96.2886 67.9655 89.8375 75.0998 89.8375C82.234 89.8375 88.0327 96.3509 87.9151 104.214C87.9151 112.139 82.234 118.591 75.0998 118.591ZM122.493 118.591C115.463 118.591 109.678 112.139 109.678 104.214C109.678 96.2886 115.359 89.8375 122.493 89.8375C129.627 89.8375 135.426 96.3509 135.308 104.214C135.308 112.139 129.689 118.591 122.493 118.591Z" fill="white"/>
</svg>
