<svg width="198" height="198" viewBox="0 0 198 198" fill="none" xmlns="http://www.w3.org/2000/svg">
<path d="M98.53 0H98.9798C153.362 0 197.51 44.1609 197.51 98.559V99.0089C197.51 153.407 153.362 197.568 98.9798 197.568H98.53C44.1479 197.568 0 153.407 0 99.0089V98.559C0 44.1609 44.1479 0 98.53 0Z" fill="#FFFA00"/>
<path d="M129.655 80.7077C129.641 82.0298 129.503 83.3519 129.378 84.6739C129.337 85.11 129.323 85.553 129.316 85.9891C129.302 86.7435 129.904 87.4288 130.658 87.3803C131.018 87.3596 131.385 87.2626 131.731 87.145C132.886 86.7366 134.028 86.3005 135.177 85.8644C136.215 85.463 137.274 85.1031 138.346 84.8123C139.515 84.4939 140.685 84.2586 141.875 84.4524C144.297 84.847 145.875 87.4565 144.989 89.7476C144.74 90.3913 144.359 90.945 143.903 91.4572C143.273 92.1563 142.56 92.7516 141.785 93.2777C140.872 93.8937 139.951 94.4959 139.031 95.105C137.495 96.1156 135.959 97.1192 134.429 98.1437C133.793 98.5659 133.177 99.0158 132.575 99.4796C132.243 99.7357 131.931 100.033 131.648 100.345C131.108 100.947 130.81 101.715 130.859 102.518C130.907 103.37 131.053 104.2 131.288 105.017C132.014 107.564 133.129 109.931 134.478 112.195C138.097 118.238 143.224 122.958 149.328 126.814C151.002 127.873 152.794 128.731 154.559 129.638C154.808 129.769 155.05 129.901 155.292 130.046C155.535 130.191 155.749 130.385 155.908 130.621C156.157 130.974 156.192 131.347 155.978 131.735C155.798 132.067 155.535 132.323 155.251 132.559C154.933 132.822 154.587 133.043 154.227 133.244C152.165 134.414 149.95 135.286 147.66 135.895C146.553 136.193 145.446 136.504 144.345 136.829C143.667 137.03 143.031 137.328 142.401 137.653C141.342 138.2 140.74 139.079 140.519 140.221C140.394 140.858 140.318 141.508 140.201 142.145C139.91 143.758 139.329 144.346 137.751 144.623C137.197 144.72 136.63 144.776 136.069 144.81C134.658 144.886 133.246 144.928 131.835 145.004C131.793 145.004 131.752 145.004 131.717 145.004C126.077 145.336 120.625 147.143 115.788 150.064C115.532 150.216 115.276 150.375 115.013 150.528C113.054 151.711 111.062 152.839 108.923 153.67C106.536 154.598 104.073 155.151 101.519 155.38C99.3673 155.574 97.2221 155.546 95.0839 155.304C91.8801 154.944 88.8423 154.009 85.9706 152.542C84.6351 151.857 83.348 151.095 82.0748 150.313C82.0056 150.271 81.9365 150.23 81.8604 150.181C76.7813 147.087 71.0033 145.212 65.0592 144.969C65.0177 144.969 64.9763 144.969 64.9347 144.969C63.6892 144.921 62.4505 144.872 61.205 144.796C60.4784 144.755 59.7518 144.658 59.0391 144.464C58.1326 144.215 57.4753 143.419 57.3023 142.498C57.2054 141.993 57.1293 141.488 57.0393 140.982C57.0185 140.872 57.0185 140.754 56.9977 140.643C56.7902 139.162 56.0567 138.075 54.6658 137.445C53.8147 137.058 52.9428 136.746 52.0433 136.497C50.4933 136.068 48.9294 135.687 47.4139 135.14C46.0784 134.663 44.7914 134.095 43.5528 133.417C43.1791 133.216 42.8192 132.988 42.4733 132.752C42.238 132.593 42.0166 132.413 41.8228 132.213C41.2001 131.562 41.2623 130.711 41.9681 130.157C42.3764 129.831 42.8538 129.617 43.3174 129.388C46.5489 127.803 49.6145 125.948 52.4654 123.747C56.7694 120.432 60.4161 116.507 63.1771 111.78C64.1597 110.084 64.9762 108.298 65.6474 106.457C66.0903 105.238 66.4501 104.02 66.5401 102.74C66.6024 101.798 66.284 100.864 65.6405 100.179C65.1769 99.6872 64.6371 99.2927 64.0905 98.8981C63.2739 98.3167 62.4505 97.7422 61.6202 97.1954C59.8349 96.0187 58.0427 94.8627 56.2574 93.693C55.4754 93.1808 54.7211 92.627 54.043 91.9833C53.5517 91.5126 53.1089 91.0073 52.756 90.419C52.0225 89.1869 51.9671 87.9202 52.5138 86.6189C52.839 85.8437 53.448 85.1861 54.2092 84.8331C55.2956 84.3347 56.4304 84.2724 57.5721 84.4593C58.8038 84.6601 59.9871 85.0408 61.1565 85.463C62.3536 85.8921 63.53 86.3628 64.7202 86.8127C65.2738 87.0204 65.8342 87.228 66.4224 87.318C66.5608 87.3388 66.6993 87.3803 66.8377 87.3734C67.5227 87.3526 68.0901 87.1311 68.0832 86.2105C68.0832 85.7675 68.0694 85.3176 68.0486 84.8746C67.9448 82.6597 67.8133 80.4447 67.7579 78.2297C67.6334 72.9554 67.6541 67.6602 69.0312 62.5381C69.8754 59.4026 71.3355 56.4885 73.3076 53.8998C77.3971 48.5215 82.7945 45.1091 89.2506 43.2887C92.7796 42.292 96.3849 41.9667 100.038 42.0774C103.491 42.1812 106.93 42.7696 110.197 43.9047C114.072 45.2614 117.594 47.2272 120.59 50.0167C123.995 53.1868 126.617 56.89 128.043 61.3753C128.686 63.4034 129.094 65.4799 129.343 67.5841C129.862 71.9379 129.717 76.3194 129.676 80.6939L129.655 80.7077Z" fill="white"/>
<path d="M98.6821 158.398C97.3812 158.398 96.0665 158.322 94.7656 158.176C91.2642 157.782 87.8597 156.75 84.6628 155.11C83.2373 154.376 81.8534 153.559 80.5733 152.777L80.3656 152.653C75.5772 149.732 70.2421 148.077 64.9485 147.863H64.824C63.7237 147.814 62.402 147.759 61.0457 147.683C60.0285 147.62 59.1221 147.482 58.2848 147.254C56.3542 146.728 54.8595 145.073 54.472 143.045C54.3959 142.664 54.3337 142.277 54.2714 141.896L54.2022 141.474C54.1815 141.349 54.1676 141.211 54.1537 141.079C54.0638 140.443 53.8839 140.27 53.4895 140.09C52.7836 139.771 52.0363 139.501 51.2751 139.287C50.9153 139.183 50.5555 139.086 50.1887 138.989C48.9709 138.664 47.7115 138.318 46.4451 137.868C44.9505 137.335 43.5112 136.691 42.1688 135.964C41.7259 135.722 41.2831 135.452 40.8471 135.154C40.4388 134.871 40.0652 134.566 39.74 134.227C38.8681 133.32 38.4321 132.164 38.5082 130.967C38.5913 129.769 39.1795 128.683 40.1621 127.893C40.771 127.409 41.3799 127.118 41.8712 126.876L42.0373 126.793C45.1996 125.242 48.1059 123.45 50.6939 121.456C54.9495 118.175 58.2156 114.534 60.6721 110.319C61.5163 108.872 62.2775 107.232 62.921 105.46C63.3708 104.228 63.5853 103.356 63.6406 102.546C63.6476 102.394 63.6061 102.248 63.5231 102.165C63.2394 101.868 62.8311 101.563 62.3951 101.259C61.5233 100.636 60.7413 100.096 60.0078 99.6181C58.9145 98.8982 57.8142 98.1853 56.7209 97.4723L54.6519 96.1226C53.6001 95.4304 52.7629 94.7867 52.0294 94.0945C51.289 93.3954 50.7077 92.6824 50.251 91.9141C49.047 89.9068 48.9017 87.6919 49.8289 85.5046C50.4378 84.0579 51.5865 82.8605 52.9774 82.2168C54.4928 81.5177 56.195 81.3169 58.0218 81.6215C59.558 81.8776 60.9489 82.3414 62.1183 82.7636C62.921 83.0543 63.7098 83.3588 64.5056 83.6634C64.6994 83.7395 64.8932 83.8157 65.0869 83.8849L65.0592 83.3312C64.9762 81.6976 64.8931 80.0018 64.8516 78.3198C64.727 73.0177 64.7271 67.3765 66.2218 61.8045C67.149 58.3436 68.7544 55.1042 70.9895 52.1694C75.3074 46.4935 81.1822 42.5758 88.4479 40.527C92.06 39.5095 95.8797 39.0803 100.108 39.2049C103.99 39.3226 107.699 39.994 111.131 41.1984C115.587 42.7558 119.421 45.0192 122.534 47.9194C126.583 51.6918 129.274 55.8172 130.769 60.517C131.426 62.5936 131.89 64.8016 132.187 67.2588C132.665 71.2527 132.61 75.2258 132.561 79.0743L132.54 80.7355C132.527 81.8015 132.443 82.8328 132.354 83.8364C132.956 83.608 133.558 83.3796 134.132 83.1581C135.384 82.6805 136.512 82.3067 137.578 82.016C138.941 81.6422 140.567 81.3031 142.332 81.5938C144.373 81.926 146.151 83.165 147.203 84.9924C148.234 86.7851 148.407 88.8963 147.688 90.779C147.335 91.6926 146.802 92.544 146.055 93.3747C145.307 94.2053 144.442 94.9528 143.404 95.6588C142.692 96.1433 141.972 96.614 141.252 97.0916L139.107 98.5037C138.083 99.1751 137.052 99.8534 136.035 100.532C135.488 100.899 134.914 101.307 134.339 101.757C134.16 101.895 133.973 102.068 133.793 102.269C133.751 102.318 133.737 102.345 133.737 102.352C133.772 102.961 133.876 103.577 134.063 104.214C134.679 106.353 135.62 108.478 136.955 110.707C140.117 115.981 144.664 120.453 150.864 124.363C152.068 125.125 153.355 125.775 154.718 126.475C155.106 126.668 155.493 126.869 155.874 127.07C156.171 127.222 156.462 127.388 156.746 127.554C157.348 127.907 157.86 128.378 158.268 128.959C159.147 130.212 159.237 131.763 158.517 133.106C158.081 133.908 157.493 134.448 157.092 134.781C156.566 135.217 156.047 135.528 155.652 135.75C153.445 137.003 151.009 137.985 148.4 138.678C147.425 138.934 146.394 139.224 145.169 139.591C144.678 139.737 144.166 139.986 143.73 140.214C143.543 140.311 143.432 140.387 143.356 140.775C143.294 141.086 143.252 141.398 143.204 141.716C143.155 142.035 143.107 142.346 143.051 142.658C142.546 145.461 141.024 146.991 138.242 147.468C137.613 147.579 136.934 147.655 136.229 147.69C135.53 147.731 134.831 147.759 134.125 147.787C133.412 147.814 132.7 147.842 131.994 147.884H131.918C126.873 148.188 121.822 149.794 117.275 152.542L116.5 153.006C114.528 154.196 112.369 155.435 109.961 156.37C107.401 157.366 104.647 158.003 101.775 158.266C100.751 158.356 99.7132 158.405 98.6752 158.405L98.6821 158.398ZM60.1047 141.744C60.4783 141.827 60.8936 141.875 61.378 141.903C62.6858 141.979 63.9659 142.035 65.0454 142.069H65.1769C71.4531 142.332 77.743 144.277 83.3688 147.704L83.5903 147.842C84.9465 148.673 86.1021 149.351 87.2923 149.96C89.8734 151.282 92.5997 152.113 95.4091 152.424C97.3674 152.646 99.3327 152.666 101.263 152.493C103.63 152.279 105.796 151.78 107.878 150.971C109.871 150.195 111.767 149.109 113.525 148.05L114.3 147.579C119.649 144.347 125.614 142.457 131.558 142.111H131.675C132.423 142.062 133.163 142.028 133.904 142C134.575 141.972 135.253 141.945 135.924 141.91C136.409 141.882 136.865 141.834 137.28 141.765C137.308 141.765 137.329 141.758 137.356 141.751C137.363 141.716 137.37 141.675 137.384 141.626C137.433 141.363 137.467 141.1 137.509 140.837C137.571 140.443 137.626 140.048 137.702 139.66C138.104 137.605 139.28 136.02 141.093 135.078C141.73 134.746 142.588 134.331 143.55 134.047C144.83 133.666 145.909 133.362 146.94 133.092C148.594 132.656 150.158 132.074 151.604 131.368C150.345 130.724 149.058 130.053 147.798 129.257C140.816 124.848 135.654 119.753 132.014 113.683C130.416 111.018 129.274 108.443 128.52 105.813C128.222 104.768 128.043 103.716 127.987 102.678C127.904 101.113 128.444 99.5973 129.516 98.4067C129.925 97.9499 130.368 97.5346 130.824 97.1885C131.502 96.6625 132.181 96.1779 132.838 95.735C133.869 95.0428 134.914 94.3575 135.952 93.6792L138.097 92.2671C138.796 91.8103 139.488 91.3535 140.18 90.8828C140.823 90.4467 141.342 90.0037 141.771 89.5261C142.041 89.2216 142.214 88.9655 142.311 88.7094C142.443 88.3633 142.311 88.038 142.214 87.8787C142.034 87.5673 141.744 87.3527 141.432 87.3043C140.761 87.1935 139.924 87.3804 139.121 87.6019C138.242 87.8441 137.294 88.1556 136.222 88.5709C135.101 89.0001 133.904 89.4569 132.7 89.8792C132.042 90.1076 131.44 90.2391 130.845 90.2737C129.71 90.336 128.582 89.9276 127.752 89.1316C126.887 88.301 126.41 87.1381 126.43 85.9407C126.437 85.5323 126.451 84.9855 126.506 84.4179L126.555 83.8641C126.659 82.7567 126.756 81.7115 126.769 80.687L126.79 79.0051C126.838 75.1773 126.887 71.5573 126.458 67.951C126.209 65.8606 125.821 63.9987 125.275 62.2752C124.091 58.5443 121.912 55.2357 118.611 52.1555C116.051 49.7675 112.985 47.9748 109.235 46.6597C106.363 45.656 103.235 45.0884 99.9485 44.9915C96.3156 44.8738 93.0702 45.2407 90.0325 46.099C83.9154 47.8225 79.1962 50.9581 75.6049 55.6787C73.8265 58.0114 72.5533 60.5863 71.8198 63.3134C70.5258 68.1379 70.5258 73.3084 70.6435 78.1883C70.6781 79.7941 70.7611 81.4484 70.8441 83.0474L70.9271 84.764C70.9479 85.2485 70.9618 85.733 70.9687 86.2175C70.9825 88.5779 69.3564 90.2114 66.9207 90.2875C66.4916 90.2875 66.1664 90.2322 65.9864 90.1975C65.08 90.0591 64.3119 89.7684 63.6961 89.54C63.2809 89.3808 62.8657 89.2216 62.4505 89.0624C61.6893 88.7717 60.9282 88.4809 60.167 88.2041C59.2536 87.8718 58.1672 87.5119 57.0946 87.3319C56.1881 87.1866 55.6969 87.3458 55.4062 87.4773C55.337 87.5119 55.2263 87.6157 55.164 87.7611C54.9356 88.301 55.0049 88.5917 55.2194 88.9516C55.4062 89.2631 55.6692 89.5746 56.0152 89.9068C56.4926 90.3568 57.067 90.7998 57.8212 91.2912L59.8764 92.634C60.9835 93.3539 62.0907 94.0737 63.1909 94.8005C63.9867 95.3266 64.824 95.9011 65.7581 96.5656C66.4017 97.0293 67.0936 97.5346 67.7302 98.213C68.9135 99.4727 69.5294 101.196 69.4118 102.954C69.2941 104.712 68.782 106.291 68.353 107.467C67.5849 109.565 66.6854 111.51 65.6682 113.254C62.8657 118.058 59.0183 122.363 54.2229 126.059C51.6834 128.018 48.8671 129.804 45.8431 131.368C46.6527 131.763 47.5039 132.123 48.3896 132.434C49.4414 132.808 50.5348 133.106 51.6973 133.417C52.0709 133.521 52.4515 133.618 52.8252 133.722C53.8632 134.012 54.8872 134.379 55.8629 134.822C58.1256 135.847 59.5165 137.722 59.8694 140.249C59.8833 140.339 59.8902 140.429 59.8971 140.512V140.498L59.9663 140.948C60.0078 141.218 60.0562 141.488 60.1047 141.751V141.744Z" fill="#1D1D1B"/>
</svg>
