<svg width="198" height="198" viewBox="0 0 198 198" fill="none" xmlns="http://www.w3.org/2000/svg">
<path d="M197.503 98.7874C197.503 148.679 160.531 189.926 112.501 196.62C108.01 197.243 103.415 197.568 98.7513 197.568C93.3678 197.568 88.0811 197.139 82.9329 196.308C35.9133 188.736 0 147.953 0 98.7874C0 44.2301 44.217 0 98.7583 0C153.3 0 197.517 44.2301 197.517 98.7874H197.503Z" fill="#1C1C1B"/>
<path d="M40.0514 43.5656L85.597 104.477L39.7677 154.002H50.085L90.2125 110.644L122.631 154.002H157.735L109.629 89.6645L152.289 43.5656H141.972L105.021 83.4972L75.1621 43.5656H40.0582H40.0514ZM55.2194 51.1656H71.3424L142.553 146.402H126.43L55.2194 51.1656Z" fill="white"/>
</svg>
