<svg width="207" height="142" viewBox="0 0 207 142" fill="none" xmlns="http://www.w3.org/2000/svg">
<path d="M8.95309 29.3066C8.66036 26.8358 6.42594 25.0807 3.96237 25.3865C1.4988 25.6923 -0.261005 27.9432 0.0317225 30.414L4.49241 29.8603L8.95309 29.3066ZM17.2404 81.4539L13.1585 83.3557V83.3557L17.2404 81.4539ZM58.1495 138.758C60.6292 138.668 62.5762 136.578 62.4983 134.09L61.2286 93.5449C61.1507 91.0569 59.0774 89.1132 56.5977 89.2035C54.118 89.2938 52.171 91.384 52.2489 93.872L53.3775 129.912L17.4588 131.22C14.9791 131.31 13.0321 133.4 13.11 135.888C13.1879 138.376 15.2612 140.32 17.7409 140.23L58.1495 138.758ZM4.49241 29.8603C0.0317225 30.414 0.0317907 30.4146 0.0318721 30.4153C0.0319201 30.4157 0.0320169 30.4165 0.0321091 30.4173C0.0322973 30.4188 0.0325421 30.4209 0.0328465 30.4234C0.0334551 30.4285 0.0342981 30.4356 0.0353749 30.4446C0.0375283 30.4625 0.0406204 30.4881 0.0446583 30.5213C0.0527301 30.5876 0.0645803 30.6839 0.0802476 30.809C0.11158 31.0593 0.158195 31.4244 0.220426 31.8936C0.344867 32.8319 0.531861 34.187 0.784095 35.8712C1.28825 39.2376 2.05469 43.9299 3.10561 49.244C5.18974 59.7826 8.45697 73.1084 13.1585 83.3557L17.2404 81.4539L21.3224 79.5522C17.0785 70.3024 13.9717 57.8314 11.9182 47.4475C10.9003 42.3003 10.157 37.7499 9.66859 34.4888C9.42455 32.8593 9.24458 31.5546 9.12612 30.6614C9.0669 30.2149 9.02308 29.8714 8.99434 29.642C8.97997 29.5272 8.96938 29.441 8.96252 29.3846C8.95908 29.3565 8.95659 29.3358 8.95502 29.3227C8.95423 29.3162 8.95368 29.3115 8.95336 29.3088C8.9532 29.3075 8.95309 29.3066 8.95305 29.3062C8.95303 29.3061 8.95304 29.3061 8.95302 29.306C8.95305 29.3062 8.95309 29.3066 4.49241 29.8603ZM17.2404 81.4539L13.1585 83.3557C19.3015 96.7449 29.8364 110.334 38.64 120.426C43.0737 125.509 47.1326 129.777 50.0858 132.777C51.5633 134.278 52.7664 135.464 53.6042 136.279C54.0232 136.686 54.3509 137.001 54.5762 137.216C54.6889 137.323 54.7759 137.406 54.8359 137.462C54.8659 137.491 54.8891 137.513 54.9054 137.528C54.9136 137.536 54.92 137.542 54.9247 137.546C54.927 137.548 54.9289 137.55 54.9304 137.551C54.9311 137.552 54.9319 137.553 54.9322 137.553C54.9329 137.554 54.9334 137.554 58.0084 134.253C61.0835 130.952 61.0838 130.952 61.084 130.952C61.0839 130.952 61.084 130.952 61.0839 130.952C61.0836 130.952 61.0828 130.951 61.0816 130.95C61.0792 130.948 61.0751 130.944 61.0693 130.939C61.0576 130.928 61.039 130.91 61.0137 130.886C60.9632 130.838 60.8857 130.765 60.7829 130.667C60.5772 130.471 60.2698 130.176 59.8721 129.789C59.0765 129.015 57.9199 127.875 56.4925 126.425C53.6358 123.523 49.7035 119.388 45.4124 114.469C36.7666 104.558 26.9175 91.747 21.3224 79.5522L17.2404 81.4539Z" fill="white"/>
<path d="M111.335 4.84118C111.53 2.35832 109.683 0.19648 107.21 0.0125704C104.737 -0.171339 102.574 1.69233 102.378 4.17518L106.856 4.50818L111.335 4.84118ZM103.406 65.2598L98.9144 65.2818V65.2818L103.406 65.2598ZM100.23 120.228C101.984 121.979 104.829 121.966 106.583 120.197L135.17 91.3689C136.924 89.5998 136.924 86.7456 135.17 84.9938C133.416 83.2419 130.572 83.2558 128.817 85.0248L103.406 110.649L77.9955 85.2734C76.2412 83.5215 73.397 83.5354 71.6428 85.3044C69.8885 87.0734 69.8885 89.9277 71.6428 91.6795L100.23 120.228ZM106.856 4.50818C102.378 4.17518 102.378 4.17541 102.378 4.17582C102.378 4.17617 102.378 4.17674 102.378 4.17745C102.378 4.17887 102.378 4.18096 102.378 4.18371C102.377 4.18921 102.377 4.19735 102.376 4.20811C102.374 4.22962 102.372 4.26156 102.368 4.30368C102.362 4.38793 102.352 4.51285 102.339 4.67631C102.314 5.00321 102.277 5.48424 102.229 6.10208C102.135 7.33774 102 9.12085 101.838 11.313C101.514 15.6967 101.081 21.7192 100.649 28.2723C99.7886 41.3197 98.9144 56.6589 98.9144 65.2818L103.406 65.2598L107.898 65.2379C107.898 56.9653 108.749 41.9287 109.614 28.8241C110.044 22.3013 110.474 16.3037 110.797 11.9364C110.959 9.75305 111.093 7.97789 111.187 6.74917C111.234 6.13482 111.271 5.65712 111.296 5.33335C111.309 5.17147 111.318 5.04807 111.325 4.96532C111.328 4.92395 111.331 4.89273 111.332 4.87195C111.333 4.86156 111.334 4.85378 111.334 4.84864C111.334 4.84607 111.334 4.84416 111.334 4.84291C111.334 4.84229 111.335 4.84186 111.335 4.84154C111.335 4.84128 111.335 4.84118 106.856 4.50818ZM103.406 65.2598L98.9144 65.2818L98.9144 117.047L103.406 117.025L107.898 117.003L107.898 65.2379L103.406 65.2598Z" fill="white"/>
<path d="M177.276 15.5741C176.453 13.2294 173.889 12.0073 171.548 12.8444C169.208 13.6815 167.977 16.2608 168.8 18.6055L173.038 17.0898L177.276 15.5741ZM182.878 65.9806L178.386 66.0026V66.0026L182.878 65.9806ZM157.876 129.976C158.463 132.393 160.892 133.864 163.303 133.264L202.585 123.479C204.996 122.878 206.474 120.433 205.888 118.017C205.301 115.6 202.871 114.128 200.461 114.729L165.543 123.427L157.046 88.4283C156.459 86.0122 154.03 84.5403 151.619 85.1407C149.208 85.7412 147.73 88.1867 148.316 90.6028L157.876 129.976ZM173.038 17.0898C168.8 18.6055 168.8 18.6052 168.8 18.6049C168.8 18.6049 168.8 18.6048 168.8 18.6049C168.8 18.6051 168.8 18.6057 168.8 18.6068C168.801 18.6089 168.802 18.6127 168.804 18.6182C168.808 18.6291 168.814 18.6467 168.823 18.6709C168.839 18.7192 168.865 18.7937 168.899 18.8933C168.967 19.0926 169.069 19.3923 169.2 19.7837C169.461 20.5668 169.836 21.7163 170.288 23.1639C171.193 26.0611 172.4 30.1409 173.606 34.8574C176.041 44.375 178.385 56.1565 178.386 66.0026L182.878 65.9806L187.37 65.9586C187.37 54.955 184.794 42.2911 182.309 32.5758C181.055 27.6758 179.803 23.4422 178.862 20.4302C178.392 18.9231 177.999 17.7191 177.721 16.8872C177.583 16.4712 177.473 16.148 177.397 15.9263C177.359 15.8155 177.33 15.73 177.309 15.671C177.299 15.6414 177.291 15.6185 177.285 15.6023C177.283 15.5942 177.28 15.5878 177.279 15.5831C177.278 15.5808 177.277 15.5788 177.277 15.5773C177.276 15.5766 177.276 15.5758 177.276 15.5754C177.276 15.5747 177.276 15.5741 173.038 17.0898ZM182.878 65.9806L178.386 66.0026C178.386 79.4672 173.515 94.516 168.429 106.473C165.911 112.394 163.39 117.442 161.502 121.004C160.558 122.784 159.775 124.189 159.231 125.142C158.96 125.618 158.748 125.981 158.607 126.222C158.536 126.342 158.483 126.431 158.449 126.489C158.432 126.518 158.419 126.538 158.411 126.551C158.408 126.557 158.405 126.562 158.404 126.564C158.403 126.565 158.403 126.566 158.403 126.566C158.403 126.566 158.403 126.565 158.403 126.566C158.403 126.565 158.403 126.564 162.241 128.889C166.078 131.214 166.079 131.213 166.079 131.212C166.08 131.212 166.08 131.21 166.081 131.209C166.082 131.207 166.084 131.205 166.085 131.202C166.089 131.196 166.094 131.188 166.1 131.178C166.112 131.157 166.129 131.129 166.151 131.092C166.195 131.018 166.258 130.913 166.338 130.776C166.499 130.502 166.731 130.104 167.024 129.591C167.609 128.565 168.438 127.078 169.429 125.208C171.41 121.472 174.049 116.188 176.689 109.978C181.922 97.6756 187.37 81.2702 187.37 65.9586L182.878 65.9806Z" fill="white"/>
</svg>
