<svg width="409" height="305" viewBox="0 0 409 305" fill="none" xmlns="http://www.w3.org/2000/svg">
<rect x="5.6292" y="12.8811" width="389.429" height="291.658" rx="55" transform="rotate(-1.87409 5.6292 12.8811)" fill="white"/>
<path d="M7.42788 67.8516C6.4345 37.4922 30.2404 12.0758 60.5998 11.0824L339.879 1.94419C370.239 0.95081 395.655 24.7567 396.648 55.1161L398.584 114.283L9.36386 127.018L7.42788 67.8516Z" fill="#1E1E1E"/>
<path d="M36.715 107.529L36.0714 87.8594L43.9072 87.6031L44.5508 107.273L36.715 107.529ZM44.2029 96.6382L40.4589 93.519C41.4019 91.3537 42.5236 89.7561 43.8239 88.7264C45.1501 87.6691 46.8259 87.1073 48.8515 87.0411C49.7577 87.0114 50.5341 87.0927 51.1807 87.285C51.854 87.4764 52.3971 87.7655 52.81 88.1522L48.6164 94.5328C48.4228 94.3256 48.1373 94.1616 47.7598 94.0405C47.4081 93.8919 46.9924 93.8255 46.5126 93.8412C45.7131 93.8673 45.1212 94.1268 44.7372 94.6197C44.3522 95.0858 44.1741 95.7587 44.2029 96.6382ZM62.1801 107.096C60.3411 107.156 58.7009 106.77 57.2596 105.936C55.8182 105.103 54.6729 103.94 53.8236 102.447C52.9735 100.927 52.5157 99.1677 52.4503 97.1688C52.3849 95.1699 52.7267 93.3844 53.4756 91.8124C54.2246 90.2404 55.2915 89.0048 56.6761 88.1057C58.0599 87.18 59.6713 86.687 61.5104 86.6269C62.6564 86.5894 63.7157 86.7548 64.6883 87.1232C65.6866 87.4641 66.517 87.9705 67.1793 88.6425C67.8683 89.3137 68.3209 90.0993 68.5371 90.9994L68.906 102.273C68.7491 103.186 68.3488 103.999 67.7052 104.714C67.0882 105.428 66.2932 106.001 65.3201 106.433C64.3728 106.837 63.3262 107.058 62.1801 107.096ZM63.7142 100.162C64.7003 100.13 65.4765 99.7975 66.0428 99.1653C66.6349 98.5056 66.9148 97.6827 66.8825 96.6966C66.8607 96.0302 66.7087 95.4616 66.4265 94.9906C66.1434 94.4929 65.7439 94.1057 65.2279 93.8291C64.7386 93.5517 64.1741 93.4234 63.5344 93.4443C62.8947 93.4652 62.3265 93.6306 61.8297 93.9403C61.3596 94.2492 60.9862 94.6616 60.7096 95.1776C60.433 95.6936 60.3051 96.2714 60.3261 96.9111C60.347 97.5507 60.499 98.1194 60.7821 98.6171C61.0918 99.1139 61.5047 99.5006 62.0207 99.7772C62.5367 100.054 63.1012 100.182 63.7142 100.162ZM66.9645 106.539L66.7918 101.262L67.7142 96.4292L66.4792 91.7071L66.3209 86.8697L73.9568 86.6198L74.6004 106.289L66.9645 106.539ZM88.3428 106.32C86.2106 106.39 84.2772 106.013 82.5427 105.189C80.8082 104.365 79.4226 103.197 78.3858 101.683C77.3482 100.143 76.7972 98.3865 76.7326 96.4143C76.6672 94.4153 77.1023 92.6268 78.0379 91.0487C78.9992 89.4431 80.3184 88.1726 81.9953 87.2373C83.6981 86.2744 85.6289 85.7576 87.7877 85.687C89.3336 85.6364 90.7274 85.8309 91.9691 86.2706C93.2374 86.7093 94.4208 87.4043 95.5192 88.3556L90.7627 93.4338C90.4057 93.1254 90.0114 92.8981 89.5798 92.7522C89.1481 92.6062 88.6257 92.5433 88.0127 92.5633C87.3731 92.5842 86.7915 92.75 86.2681 93.0606C85.7704 93.3437 85.3699 93.7437 85.0667 94.2606C84.7634 94.7774 84.6231 95.3823 84.6458 96.0753C84.6685 96.7683 84.8484 97.376 85.1857 97.8986C85.5221 98.3946 85.9616 98.7804 86.5043 99.0561C87.0469 99.3319 87.6247 99.4597 88.2377 99.4396C88.9307 99.417 89.5002 99.2916 89.9464 99.0636C90.3925 98.8355 90.7827 98.5293 91.1169 98.1448L96.1952 102.901C95.084 104.005 93.9108 104.844 92.6756 105.418C91.4395 105.965 89.9953 106.266 88.3428 106.32ZM107.941 105.679C105.782 105.749 103.835 105.373 102.101 104.549C100.392 103.698 99.0188 102.502 97.9812 100.962C96.9702 99.4207 96.4325 97.664 96.368 95.6917C96.3034 93.7195 96.7256 91.9447 97.6345 90.3675C98.5434 88.7902 99.823 87.5344 101.473 86.5999C103.149 85.6379 105.067 85.1216 107.226 85.051C109.385 84.9803 111.318 85.3706 113.027 86.2219C114.735 87.0465 116.094 88.216 117.104 89.7304C118.141 91.244 118.691 92.9869 118.756 94.9592C118.821 96.9315 118.399 98.7196 117.491 100.323C116.583 101.927 115.304 103.21 113.655 104.171C112.004 105.105 110.1 105.608 107.941 105.679ZM107.676 98.8036C108.342 98.7818 108.911 98.6298 109.382 98.3476C109.879 98.0378 110.252 97.6254 110.502 97.1103C110.751 96.5685 110.864 95.9511 110.842 95.2582C110.819 94.5652 110.653 93.9703 110.343 93.4735C110.059 92.9492 109.673 92.5616 109.184 92.3108C108.695 92.0333 108.117 91.9055 107.451 91.9273C106.811 91.9482 106.243 92.1136 105.746 92.4233C105.276 92.7322 104.903 93.1579 104.627 93.7006C104.377 94.2157 104.264 94.8197 104.286 95.5127C104.308 96.179 104.461 96.7743 104.745 97.2986C105.055 97.7955 105.454 98.1826 105.944 98.4601C106.459 98.71 107.036 98.8245 107.676 98.8036ZM134.027 104.345L133.666 93.3107C133.64 92.5378 133.395 91.9589 132.928 91.5739C132.488 91.1614 131.935 90.9661 131.268 90.9879C130.815 91.0027 130.405 91.1095 130.038 91.3083C129.698 91.5062 129.427 91.7952 129.226 92.1753C129.051 92.5279 128.972 92.9574 128.988 93.4638L125.905 92.2039C125.853 90.6048 126.155 89.2208 126.81 88.0521C127.492 86.8825 128.436 85.9711 129.642 85.318C130.875 84.664 132.277 84.3113 133.85 84.2599C135.262 84.2136 136.525 84.4925 137.639 85.0964C138.779 85.6728 139.686 86.4969 140.361 87.5687C141.036 88.6138 141.396 89.8427 141.443 91.2553L141.863 104.088L134.027 104.345ZM121.513 104.754L120.87 85.0848L128.706 84.8284L129.349 104.498L121.513 104.754ZM147.576 103.901L146.668 76.1563L154.504 75.8999L155.412 103.645L147.576 103.901ZM142.944 90.7659L142.735 84.3693L158.966 83.8382L159.175 90.2348L142.944 90.7659ZM171.781 103.59C169.489 103.665 167.463 103.304 165.703 102.508C163.941 101.685 162.543 100.517 161.506 99.0033C160.495 97.4622 159.956 95.6789 159.89 93.6533C159.825 91.6544 160.233 89.8667 161.115 88.2903C162.024 86.7131 163.29 85.4577 164.914 84.5241C166.537 83.5638 168.388 83.0497 170.467 82.9817C172.519 82.9145 174.345 83.2817 175.946 84.0831C177.545 84.8579 178.809 85.9771 179.737 87.4409C180.692 88.9038 181.201 90.5947 181.264 92.5137C181.277 92.9135 181.265 93.3408 181.226 93.7956C181.213 94.2229 181.15 94.7319 181.036 95.3226L163.289 96.0234L163.132 91.2259L177.96 90.6207L174.392 92.8586C174.357 91.7925 174.195 90.9307 173.907 90.2731C173.644 89.588 173.254 89.0804 172.736 88.7505C172.219 88.4206 171.573 88.2683 170.801 88.2936C170.001 88.3198 169.315 88.5423 168.741 88.9613C168.168 89.3803 167.734 89.9681 167.438 90.7249C167.169 91.4807 167.053 92.3917 167.087 93.4578C167.123 94.5505 167.313 95.4648 167.657 96.2006C168.027 96.9089 168.538 97.4391 169.19 97.7913C169.842 98.1435 170.648 98.304 171.607 98.2726C172.54 98.242 173.348 98.0688 174.032 97.753C174.741 97.4096 175.378 96.8952 175.942 96.2097L179.987 99.9594C179.037 101.111 177.879 101.989 176.511 102.594C175.144 103.2 173.567 103.531 171.781 103.59ZM200.495 102.65C198.576 102.713 196.858 102.396 195.341 101.698C193.851 101 192.658 99.9984 191.761 98.6937C190.865 97.389 190.389 95.8837 190.333 94.178L189.961 82.8241L197.797 82.5677L198.171 94.0015C198.184 94.4013 198.276 94.7585 198.446 95.0731C198.643 95.3868 198.892 95.6322 199.191 95.8092C199.516 95.9586 199.878 96.0268 200.278 96.0137C200.838 95.9954 201.298 95.7936 201.659 95.4082C202.046 94.9954 202.229 94.4824 202.209 93.8694L201.835 82.4355L209.671 82.1792L210.042 93.5331C210.099 95.2655 209.723 96.8119 208.913 98.1725C208.13 99.5055 207.004 100.57 205.536 101.365C204.094 102.159 202.414 102.587 200.495 102.65ZM226.048 101.334L225.687 90.2997C225.661 89.5268 225.416 88.9479 224.95 88.5629C224.509 88.1504 223.956 87.9551 223.289 87.9769C222.836 87.9917 222.426 88.0985 222.059 88.2973C221.719 88.4952 221.448 88.7842 221.247 89.1643C221.072 89.5169 220.993 89.9464 221.009 90.4528L217.926 89.1929C217.874 87.5938 218.176 86.2098 218.831 85.0411C219.513 83.8715 220.457 82.9601 221.663 82.307C222.896 81.653 224.298 81.3003 225.871 81.2489C227.283 81.2026 228.547 81.4815 229.66 82.0854C230.8 82.6618 231.707 83.4859 232.383 84.5577C233.057 85.6028 233.417 86.8317 233.464 88.2443L233.884 101.077L226.048 101.334ZM213.534 101.743L212.891 82.0738L220.727 81.8174L221.37 101.487L213.534 101.743ZM252.272 101.076C251.046 101.116 249.815 100.996 248.578 100.717C247.342 100.437 246.181 100.035 245.097 99.5099C244.039 98.9842 243.139 98.3733 242.395 97.6772L246.375 93.3048C247.035 93.9235 247.811 94.405 248.703 94.7494C249.621 95.0929 250.574 95.2485 251.56 95.2162C252.013 95.2014 252.358 95.1367 252.594 95.0223C252.856 94.8803 252.984 94.7027 252.977 94.4895C252.965 94.1164 252.729 93.8439 252.27 93.6722C251.837 93.4996 251.272 93.3446 250.574 93.2074C249.902 93.0693 249.176 92.8929 248.395 92.6784C247.64 92.4362 246.909 92.1133 246.202 91.7096C245.494 91.2791 244.915 90.6844 244.463 89.9255C244.01 89.1399 243.764 88.134 243.724 86.908C243.683 85.6554 243.993 84.538 244.655 83.5558C245.342 82.5461 246.316 81.7405 247.577 81.1389C248.864 80.5098 250.36 80.1674 252.066 80.1116C253.799 80.0549 255.487 80.2931 257.132 80.8263C258.777 81.3594 260.099 82.1967 261.096 83.338L257.077 87.7118C256.387 86.9873 255.638 86.5182 254.83 86.3045C254.022 86.0641 253.351 85.9527 252.818 85.9701C252.312 85.9867 251.955 86.0784 251.747 86.2453C251.564 86.3847 251.477 86.561 251.484 86.7742C251.493 87.0674 251.714 87.3003 252.147 87.4729C252.579 87.6455 253.131 87.8009 253.803 87.939C254.501 88.0762 255.228 88.2659 255.983 88.508C256.738 88.7501 257.456 89.1001 258.138 89.5581C258.847 90.0151 259.428 90.6365 259.88 91.4221C260.332 92.1811 260.578 93.1869 260.619 94.4395C260.683 96.3852 259.961 97.9563 258.452 99.1529C256.944 100.35 254.884 100.991 252.272 101.076ZM274.07 100.243C271.778 100.318 269.752 99.9571 267.992 99.161C266.23 98.3381 264.832 97.1699 263.795 95.6563C262.784 94.1152 262.245 92.3319 262.179 90.3063C262.114 88.3074 262.522 86.5197 263.404 84.9434C264.313 83.3661 265.579 82.1107 267.203 81.1771C268.826 80.2169 270.677 79.7027 272.756 79.6347C274.808 79.5676 276.634 79.9347 278.235 80.7361C279.834 81.5109 281.098 82.6302 282.026 84.0939C282.981 85.5568 283.49 87.2477 283.553 89.1667C283.566 89.5665 283.554 89.9938 283.515 90.4486C283.502 90.8759 283.439 91.3849 283.325 91.9757L265.578 92.6764L265.421 87.879L280.249 87.2737L276.681 89.5116C276.646 88.4455 276.484 87.5837 276.196 86.9261C275.933 86.241 275.543 85.7335 275.026 85.4036C274.508 85.0737 273.862 84.9213 273.09 84.9466C272.29 84.9728 271.604 85.1954 271.03 85.6143C270.457 86.0333 270.023 86.6212 269.727 87.3779C269.458 88.1337 269.342 89.0447 269.376 90.1108C269.412 91.2036 269.602 92.1178 269.946 92.8537C270.316 93.5619 270.827 94.0922 271.479 94.4444C272.131 94.7966 272.937 94.957 273.896 94.9256C274.829 94.8951 275.637 94.7219 276.321 94.406C277.03 94.0626 277.667 93.5482 278.231 92.8627L282.276 96.6124C281.326 97.7641 280.168 98.6425 278.8 99.2475C277.433 99.8526 275.856 100.184 274.07 100.243ZM296.2 99.5186C294.068 99.5884 292.135 99.2114 290.4 98.3877C288.666 97.564 287.28 96.3953 286.243 94.8818C285.206 93.3415 284.655 91.5853 284.59 89.613C284.525 87.6141 284.96 85.8256 285.895 84.2475C286.857 82.6418 288.176 81.3713 289.853 80.436C291.556 79.4731 293.486 78.9564 295.645 78.8857C297.191 78.8352 298.585 79.0297 299.827 79.4693C301.095 79.9081 302.278 80.6031 303.377 81.5543L298.62 86.6326C298.263 86.3241 297.869 86.0969 297.437 85.9509C297.006 85.805 296.483 85.742 295.87 85.7621C295.231 85.783 294.649 85.9488 294.126 86.2594C293.628 86.5425 293.227 86.9425 292.924 87.4593C292.621 87.9762 292.481 88.5811 292.503 89.2741C292.526 89.967 292.706 90.5748 293.043 91.0974C293.38 91.5933 293.819 91.9791 294.362 92.2549C294.904 92.5306 295.482 92.6584 296.095 92.6384C296.788 92.6157 297.358 92.4904 297.804 92.2623C298.25 92.0343 298.64 91.728 298.974 91.3435L304.053 96.1C302.942 97.2036 301.768 98.0424 300.533 98.6164C299.297 99.1638 297.853 99.4646 296.2 99.5186ZM306.414 98.7042L305.771 79.0347L313.607 78.7783L314.25 98.4478L306.414 98.7042ZM313.902 87.8135L310.158 84.6942C311.101 82.5289 312.223 80.9314 313.523 79.9016C314.849 78.8443 316.525 78.2826 318.551 78.2163C319.457 78.1866 320.234 78.268 320.88 78.4603C321.553 78.6517 322.097 78.9407 322.509 79.3274L318.316 85.708C318.122 85.5009 317.837 85.3368 317.459 85.2157C317.108 85.0672 316.692 85.0007 316.212 85.0164C315.412 85.0426 314.821 85.3021 314.437 85.7949C314.052 86.2611 313.874 86.9339 313.902 87.8135ZM333.921 98.2844C331.629 98.3594 329.603 97.9988 327.842 97.2026C326.081 96.3797 324.682 95.2115 323.646 93.698C322.635 92.1569 322.096 90.3735 322.03 88.3479C321.964 86.349 322.373 84.5614 323.255 82.985C324.164 81.4078 325.43 80.1524 327.054 79.2188C328.677 78.2585 330.528 77.7444 332.606 77.6763C334.659 77.6092 336.485 77.9763 338.085 78.7778C339.685 79.5525 340.949 80.6718 341.877 82.1355C342.832 83.5984 343.341 85.2894 343.404 87.2083C343.417 87.6081 343.404 88.0354 343.366 88.4903C343.353 88.9176 343.29 89.4266 343.176 90.0173L325.429 90.718L325.272 85.9206L340.1 85.3154L336.532 87.5533C336.497 86.4872 336.335 85.6253 336.047 84.9677C335.784 84.2826 335.394 83.7751 334.876 83.4452C334.359 83.1153 333.713 82.963 332.94 82.9883C332.141 83.0144 331.454 83.237 330.881 83.656C330.308 84.0749 329.873 84.6628 329.578 85.4195C329.309 86.1754 329.192 87.0864 329.227 88.1525C329.263 89.2452 329.453 90.1595 329.797 90.8953C330.167 91.6036 330.678 92.1338 331.33 92.486C331.982 92.8382 332.788 92.9986 333.747 92.9672C334.68 92.9367 335.488 92.7635 336.171 92.4477C336.881 92.1043 337.517 91.5899 338.082 90.9044L342.127 94.6541C341.177 95.8058 340.019 96.6841 338.651 97.2892C337.283 97.8942 335.707 98.2259 333.921 98.2844ZM348.328 97.3327L347.42 69.5876L355.256 69.3312L356.164 97.0763L348.328 97.3327ZM343.696 84.1972L343.487 77.8006L359.718 77.2695L359.927 83.6661L343.696 84.1972Z" fill="white"/>
<path d="M28.0181 212.318C26.5524 212.369 25.2643 212.16 24.1541 211.692C23.0172 211.224 22.0475 210.577 21.245 209.751L25.837 204.829C26.1128 205.086 26.3587 205.251 26.5746 205.324C26.8182 205.422 27.0466 205.468 27.2598 205.46C27.7129 205.444 28.0547 205.299 28.2853 205.024C28.5435 204.775 28.6624 204.357 28.642 203.771L27.9413 183.583L35.7766 183.311L36.4718 203.339C36.53 205.018 36.2221 206.523 35.5478 207.854C34.8736 209.185 33.8965 210.246 32.6165 211.038C31.3365 211.829 29.8037 212.256 28.0181 212.318ZM31.7951 181.608C30.6491 181.648 29.6763 181.295 28.8766 180.549C28.1026 179.775 27.6957 178.816 27.656 177.67C27.6162 176.524 27.956 175.551 28.6754 174.753C29.4205 173.926 30.366 173.493 31.512 173.453C32.6846 173.413 33.6579 173.779 34.4319 174.553C35.205 175.3 35.6114 176.246 35.6511 177.392C35.6909 178.538 35.3516 179.524 34.6331 180.349C33.9137 181.148 32.9677 181.568 31.7951 181.608ZM39.1869 187.315L42.1024 181.371L44.2403 180.696C44.0162 181.158 43.7498 181.554 43.4411 181.885C43.1314 182.189 42.7767 182.348 42.377 182.362C41.4708 182.393 40.6184 182.049 39.8196 181.33C39.0466 180.583 38.6402 179.636 38.6004 178.49C38.5578 177.265 38.9344 176.198 39.73 175.289C40.5257 174.381 41.5498 173.905 42.8024 173.862C43.975 173.821 45.003 174.226 45.8863 175.076C46.7954 175.898 47.2717 176.935 47.3151 178.188C47.3327 178.694 47.2598 179.284 47.0964 179.957C46.9329 180.629 46.5766 181.509 46.0273 182.595L42.7714 189.112L39.1869 187.315ZM56.5345 202.683C54.6956 202.747 53.0547 202.363 51.6116 201.533C50.1686 200.703 49.021 199.542 48.1688 198.05C47.3156 196.532 46.8543 194.774 46.7849 192.775C46.7155 190.776 47.0538 188.99 47.7997 187.417C48.5455 185.843 49.6099 184.606 50.9928 183.704C52.3747 182.775 53.9851 182.279 55.824 182.215C56.97 182.175 58.0297 182.339 59.003 182.705C60.002 183.044 60.8333 183.549 61.497 184.22C62.1873 184.889 62.6415 185.674 62.8595 186.574L63.2508 197.847C63.0957 198.76 62.697 199.574 62.0548 200.29C61.4393 201.005 60.6454 201.58 59.6732 202.014C58.7267 202.42 57.6805 202.643 56.5345 202.683ZM58.0548 195.746C59.0408 195.712 59.8164 195.378 60.3814 194.745C60.9722 194.084 61.2505 193.26 61.2162 192.274C61.1931 191.608 61.04 191.04 60.7568 190.569C60.4727 190.072 60.0724 189.686 59.5559 189.41C59.066 189.134 58.5012 189.006 57.8616 189.029C57.222 189.051 56.6541 189.217 56.1579 189.528C55.6884 189.838 55.3158 190.251 55.0403 190.768C54.7647 191.284 54.638 191.862 54.6602 192.502C54.6824 193.141 54.8355 193.71 55.1196 194.207C55.4303 194.703 55.844 195.089 56.3605 195.365C56.8771 195.64 57.4418 195.767 58.0548 195.746ZM61.3177 202.117L61.1346 196.84L62.0474 192.005L60.8029 187.286L60.635 182.448L68.2704 182.183L68.9531 201.852L61.3177 202.117ZM72.685 201.722L72.0022 182.054L79.8375 181.782L80.5202 201.45L72.685 201.722ZM75.8561 180.079C74.7101 180.119 73.7372 179.766 72.9375 179.02C72.1636 178.246 71.7567 177.286 71.7169 176.14C71.6771 174.994 72.017 174.022 72.7363 173.223C73.4815 172.397 74.427 171.964 75.573 171.924C76.7456 171.883 77.7189 172.25 78.4929 173.023C79.2659 173.77 79.6723 174.717 79.7121 175.863C79.7519 177.009 79.4125 177.994 78.6941 178.82C77.9747 179.619 77.0287 180.038 75.8561 180.079ZM84.2414 201.321L83.5587 181.653L91.394 181.381L92.0767 201.049L84.2414 201.321ZM96.3541 200.9L95.9628 189.627C95.9397 188.961 95.7218 188.448 95.3091 188.089C94.8954 187.703 94.3821 187.521 93.7692 187.542C93.3428 187.557 92.9596 187.664 92.6196 187.862C92.3053 188.033 92.0605 188.282 91.885 188.608C91.7362 188.933 91.6697 189.323 91.6854 189.776L88.6084 188.762C88.5529 187.163 88.8517 185.778 89.5048 184.608C90.1846 183.437 91.1135 182.525 92.2915 181.87C93.4695 181.215 94.8181 180.862 96.3371 180.809C97.6697 180.763 98.88 181.041 99.9683 181.643C101.083 182.245 101.98 183.108 102.66 184.232C103.338 185.329 103.704 186.65 103.758 188.196L104.189 200.628L96.3541 200.9ZM108.467 200.48L108.076 189.207C108.052 188.541 107.834 188.028 107.422 187.669C107.008 187.283 106.495 187.1 105.882 187.122C105.455 187.136 105.072 187.243 104.732 187.442C104.418 187.613 104.173 187.861 103.998 188.188C103.849 188.513 103.782 188.902 103.798 189.355L99.2023 189.555C99.1384 187.716 99.4436 186.131 100.118 184.8C100.818 183.442 101.809 182.393 103.091 181.655C104.371 180.89 105.851 180.479 107.53 180.42C109.103 180.366 110.5 180.651 111.723 181.275C112.972 181.899 113.964 182.825 114.701 184.054C115.437 185.282 115.836 186.776 115.897 188.535L116.302 200.208L108.467 200.48ZM129.861 200.218C127.569 200.297 125.542 199.941 123.78 199.148C122.018 198.329 120.616 197.163 119.577 195.652C118.563 194.113 118.02 192.33 117.95 190.305C117.881 188.306 118.286 186.518 119.165 184.94C120.071 183.36 121.334 182.103 122.956 181.166C124.577 180.202 126.427 179.684 128.506 179.612C130.558 179.541 132.385 179.905 133.987 180.703C135.588 181.474 136.854 182.591 137.785 184.053C138.743 185.514 139.255 187.204 139.322 189.123C139.336 189.523 139.324 189.95 139.287 190.405C139.275 190.832 139.212 191.341 139.099 191.932L121.354 192.668L121.188 187.871L136.015 187.236L132.45 189.481C132.413 188.415 132.25 187.554 131.96 186.897C131.696 186.212 131.305 185.705 130.787 185.377C130.269 185.048 129.623 184.897 128.85 184.924C128.051 184.951 127.365 185.175 126.792 185.595C126.22 186.015 125.787 186.604 125.493 187.361C125.225 188.118 125.11 189.029 125.147 190.095C125.185 191.188 125.377 192.102 125.723 192.837C126.094 193.544 126.606 194.074 127.259 194.424C127.911 194.775 128.717 194.934 129.677 194.901C130.609 194.868 131.417 194.694 132.1 194.376C132.808 194.032 133.444 193.516 134.007 192.829L138.06 196.571C137.112 197.725 135.956 198.605 134.589 199.213C133.223 199.821 131.647 200.156 129.861 200.218ZM151.801 198.976L150.838 171.233L158.673 170.961L159.636 198.704L151.801 198.976ZM147.143 185.85L146.921 179.453L163.151 178.89L163.373 185.286L147.143 185.85ZM176.005 198.616C173.713 198.695 171.686 198.339 169.925 197.546C168.162 196.727 166.76 195.561 165.721 194.05C164.707 192.511 164.165 190.729 164.094 188.703C164.025 186.704 164.43 184.916 165.309 183.338C166.215 181.759 167.478 180.501 169.1 179.564C170.721 178.601 172.571 178.083 174.65 178.011C176.702 177.939 178.529 178.303 180.131 179.101C181.732 179.873 182.998 180.989 183.929 182.451C184.887 183.912 185.4 185.602 185.466 187.521C185.48 187.921 185.468 188.348 185.431 188.803C185.419 189.23 185.356 189.74 185.243 190.33L167.498 191.066L167.332 186.269L182.159 185.635L178.594 187.88C178.557 186.814 178.394 185.952 178.104 185.295C177.841 184.61 177.449 184.104 176.931 183.775C176.413 183.446 175.767 183.295 174.994 183.322C174.195 183.35 173.509 183.573 172.936 183.994C172.364 184.414 171.931 185.002 171.637 185.76C171.369 186.516 171.254 187.427 171.291 188.493C171.329 189.586 171.521 190.5 171.867 191.235C172.238 191.943 172.75 192.472 173.403 192.823C174.055 193.174 174.861 193.332 175.821 193.299C176.754 193.267 177.561 193.092 178.244 192.775C178.953 192.43 179.588 191.914 180.152 191.228L184.204 194.969C183.257 196.123 182.1 197.004 180.733 197.611C179.367 198.219 177.791 198.554 176.005 198.616ZM188.163 197.714L187.147 168.451L194.983 168.179L195.998 197.442L188.163 197.714ZM199.758 197.311L198.742 168.049L206.577 167.777L207.593 197.039L199.758 197.311ZM221.603 197.033C219.311 197.113 217.284 196.756 215.522 195.963C213.759 195.144 212.358 193.979 211.318 192.467C210.304 190.928 209.762 189.146 209.692 187.12C209.622 185.122 210.027 183.333 210.906 181.755C211.812 180.176 213.076 178.918 214.698 177.981C216.319 177.018 218.168 176.5 220.247 176.428C222.299 176.357 224.126 176.72 225.728 177.518C227.329 178.29 228.596 179.407 229.527 180.869C230.485 182.33 230.997 184.019 231.064 185.938C231.078 186.338 231.066 186.765 231.028 187.22C231.016 187.648 230.954 188.157 230.841 188.748L213.096 189.484L212.929 184.687L227.756 184.052L224.192 186.297C224.155 185.231 223.992 184.369 223.702 183.712C223.438 183.028 223.047 182.521 222.529 182.192C222.01 181.863 221.365 181.712 220.592 181.739C219.792 181.767 219.106 181.991 218.534 182.411C217.961 182.831 217.528 183.42 217.234 184.177C216.967 184.933 216.852 185.845 216.889 186.911C216.927 188.003 217.119 188.917 217.464 189.652C217.836 190.36 218.348 190.889 219 191.24C219.653 191.591 220.459 191.75 221.418 191.716C222.351 191.684 223.159 191.509 223.842 191.192C224.55 190.847 225.186 190.332 225.749 189.645L229.801 193.387C228.854 194.54 227.697 195.421 226.331 196.029C224.964 196.636 223.388 196.971 221.603 197.033ZM233.761 196.131L233.078 176.463L240.913 176.191L241.596 195.859L233.761 196.131ZM245.873 195.71L245.482 184.437C245.459 183.771 245.241 183.258 244.828 182.899C244.415 182.513 243.901 182.331 243.288 182.352C242.862 182.367 242.479 182.474 242.139 182.672C241.825 182.843 241.58 183.092 241.404 183.418C241.256 183.743 241.189 184.133 241.205 184.586L238.128 183.572C238.072 181.973 238.371 180.588 239.024 179.418C239.704 178.247 240.633 177.334 241.811 176.68C242.989 176.025 244.337 175.672 245.856 175.619C247.189 175.573 248.399 175.851 249.488 176.453C250.602 177.055 251.5 177.918 252.179 179.042C252.857 180.139 253.224 181.46 253.277 183.006L253.709 195.438L245.873 195.71ZM257.986 195.29L257.595 184.017C257.572 183.35 257.354 182.838 256.941 182.479C256.527 182.093 256.014 181.91 255.401 181.932C254.975 181.946 254.592 182.053 254.252 182.252C253.937 182.423 253.692 182.671 253.517 182.998C253.368 183.323 253.302 183.712 253.317 184.165L248.722 184.365C248.658 182.526 248.963 180.941 249.637 179.61C250.337 178.252 251.328 177.203 252.61 176.465C253.891 175.7 255.371 175.289 257.05 175.23C258.622 175.176 260.019 175.461 261.242 176.085C262.491 176.709 263.484 177.635 264.22 178.864C264.956 180.092 265.355 181.586 265.416 183.345L265.821 195.018L257.986 195.29ZM279.381 195.028C277.089 195.107 275.062 194.751 273.3 193.958C271.537 193.139 270.136 191.973 269.096 190.462C268.082 188.923 267.54 187.14 267.47 185.115C267.4 183.116 267.805 181.328 268.684 179.749C269.59 178.17 270.854 176.913 272.475 175.976C274.096 175.012 275.946 174.494 278.025 174.422C280.077 174.351 281.904 174.715 283.506 175.513C285.107 176.284 286.373 177.401 287.305 178.863C288.262 180.324 288.775 182.014 288.841 183.933C288.855 184.333 288.843 184.76 288.806 185.215C288.794 185.642 288.732 186.151 288.619 186.742L270.874 187.478L270.707 182.681L285.534 182.046L281.97 184.291C281.933 183.225 281.769 182.364 281.48 181.707C281.216 181.022 280.825 180.515 280.306 180.187C279.788 179.858 279.142 179.707 278.369 179.733C277.57 179.761 276.884 179.985 276.311 180.405C275.739 180.825 275.306 181.414 275.012 182.171C274.745 182.928 274.63 183.839 274.667 184.905C274.704 185.998 274.896 186.912 275.242 187.647C275.613 188.354 276.125 188.884 276.778 189.234C277.431 189.585 278.237 189.744 279.196 189.711C280.129 189.678 280.937 189.504 281.619 189.186C282.328 188.842 282.964 188.326 283.527 187.639L287.579 191.381C286.632 192.535 285.475 193.415 284.109 194.023C282.742 194.631 281.166 194.966 279.381 195.028ZM304.051 193.691L303.668 182.658C303.641 181.885 303.394 181.306 302.927 180.922C302.486 180.511 301.932 180.316 301.266 180.34C300.813 180.355 300.403 180.463 300.037 180.662C299.697 180.861 299.426 181.151 299.226 181.531C299.052 181.884 298.973 182.314 298.991 182.82L295.905 181.566C295.85 179.967 296.149 178.583 296.802 177.413C297.482 176.242 298.424 175.328 299.629 174.673C300.86 174.017 302.262 173.661 303.834 173.606C305.247 173.557 306.51 173.834 307.625 174.435C308.766 175.01 309.675 175.832 310.352 176.902C311.029 177.946 311.392 179.174 311.441 180.587L311.886 193.419L304.051 193.691ZM291.538 194.125L290.856 174.457L298.691 174.185L299.374 193.853L291.538 194.125ZM317.599 193.221L316.636 165.477L324.472 165.205L325.435 192.949L317.599 193.221ZM312.941 180.094L312.719 173.698L328.949 173.135L329.171 179.531L312.941 180.094ZM341.569 192.389L340.606 164.645L348.442 164.373L349.405 192.117L341.569 192.389ZM336.911 179.262L336.689 172.866L352.919 172.303L353.141 178.699L336.911 179.262ZM365.774 192.029C363.482 192.108 361.455 191.752 359.693 190.959C357.93 190.14 356.529 188.974 355.489 187.463C354.475 185.924 353.933 184.141 353.863 182.116C353.793 180.117 354.198 178.329 355.077 176.751C355.983 175.172 357.247 173.914 358.869 172.977C360.49 172.013 362.339 171.496 364.418 171.423C366.47 171.352 368.297 171.716 369.899 172.514C371.5 173.286 372.767 174.402 373.698 175.864C374.656 177.325 375.168 179.015 375.235 180.934C375.249 181.334 375.237 181.761 375.199 182.216C375.187 182.643 375.125 183.152 375.012 183.743L357.267 184.479L357.1 179.682L371.927 179.048L368.363 181.293C368.326 180.226 368.163 179.365 367.873 178.708C367.609 178.023 367.218 177.517 366.7 177.188C366.181 176.859 365.536 176.708 364.763 176.735C363.963 176.762 363.277 176.986 362.705 177.406C362.132 177.827 361.699 178.415 361.405 179.173C361.138 179.929 361.023 180.84 361.06 181.906C361.098 182.999 361.29 183.913 361.635 184.648C362.007 185.355 362.519 185.885 363.171 186.236C363.824 186.586 364.63 186.745 365.589 186.712C366.522 186.68 367.33 186.505 368.013 186.188C368.721 185.843 369.357 185.327 369.92 184.641L373.972 188.382C373.025 189.536 371.868 190.416 370.502 191.024C369.135 191.632 367.559 191.967 365.774 192.029ZM385.788 191.454C384.562 191.497 383.33 191.379 382.093 191.102C380.856 190.825 379.695 190.425 378.61 189.902C377.551 189.379 376.649 188.77 375.905 188.075L379.875 183.695C380.537 184.312 381.314 184.792 382.206 185.135C383.126 185.476 384.078 185.63 385.064 185.596C385.517 185.58 385.862 185.515 386.098 185.4C386.36 185.257 386.487 185.079 386.48 184.866C386.467 184.493 386.231 184.221 385.771 184.05C385.338 183.879 384.772 183.725 384.074 183.589C383.402 183.452 382.676 183.277 381.894 183.064C381.139 182.824 380.407 182.502 379.7 182.1C378.991 181.671 378.41 181.077 377.957 180.319C377.503 179.534 377.254 178.529 377.212 177.303C377.168 176.051 377.476 174.933 378.136 173.949C378.821 172.938 379.794 172.13 381.054 171.526C382.339 170.895 383.835 170.549 385.54 170.49C387.273 170.43 388.962 170.665 390.608 171.195C392.254 171.725 393.577 172.559 394.577 173.699L390.567 178.08C389.875 177.357 389.125 176.89 388.317 176.678C387.508 176.439 386.837 176.329 386.304 176.347C385.798 176.365 385.441 176.457 385.233 176.624C385.051 176.764 384.964 176.941 384.971 177.154C384.981 177.447 385.203 177.679 385.636 177.851C386.069 178.023 386.621 178.177 387.293 178.314C387.991 178.45 388.718 178.638 389.474 178.879C390.229 179.119 390.948 179.468 391.631 179.924C392.341 180.38 392.923 181 393.377 181.785C393.83 182.543 394.079 183.548 394.122 184.801C394.19 186.747 393.47 188.319 391.964 189.519C390.458 190.718 388.4 191.363 385.788 191.454ZM175.228 232.183L166.79 212.784L175.105 212.496L180.244 229.087L176.806 229.207L180.702 212.301L188.977 212.014L181.944 231.95L175.228 232.183ZM171.242 240.727L176.511 227.616L181.944 231.95L178.918 240.46L171.242 240.727ZM201.194 231.762C198.902 231.842 196.875 231.485 195.113 230.692C193.35 229.873 191.949 228.708 190.909 227.196C189.895 225.657 189.353 223.875 189.283 221.849C189.213 219.851 189.618 218.062 190.497 216.484C191.403 214.905 192.667 213.647 194.289 212.71C195.91 211.747 197.759 211.229 199.838 211.157C201.89 211.085 203.717 211.449 205.319 212.247C206.92 213.019 208.187 214.136 209.118 215.597C210.076 217.058 210.588 218.748 210.655 220.667C210.668 221.067 210.657 221.494 210.619 221.949C210.607 222.377 210.545 222.886 210.432 223.477L192.687 224.213L192.52 219.416L207.347 218.781L203.783 221.026C203.746 219.96 203.583 219.098 203.293 218.441C203.029 217.757 202.638 217.25 202.119 216.921C201.601 216.592 200.955 216.441 200.183 216.468C199.383 216.496 198.697 216.72 198.125 217.14C197.552 217.56 197.119 218.149 196.825 218.906C196.558 219.662 196.443 220.573 196.48 221.64C196.518 222.732 196.71 223.646 197.055 224.381C197.427 225.089 197.939 225.618 198.591 225.969C199.244 226.32 200.05 226.479 201.009 226.445C201.942 226.413 202.75 226.238 203.432 225.921C204.141 225.576 204.777 225.06 205.34 224.374L209.392 228.115C208.445 229.269 207.288 230.15 205.922 230.757C204.555 231.365 202.979 231.7 201.194 231.762ZM222.723 231.015C220.804 231.081 219.085 230.767 217.567 230.073C216.075 229.378 214.88 228.379 213.981 227.076C213.082 225.773 212.603 224.268 212.543 222.563L212.149 211.21L219.985 210.938L220.381 222.371C220.395 222.771 220.488 223.128 220.659 223.442C220.856 223.755 221.105 224 221.405 224.176C221.73 224.325 222.093 224.393 222.492 224.379C223.052 224.359 223.512 224.157 223.872 223.771C224.258 223.357 224.44 222.844 224.419 222.231L224.022 210.798L231.857 210.526L232.251 221.879C232.312 223.611 231.938 225.158 231.132 226.52C230.351 227.855 229.227 228.921 227.761 229.719C226.321 230.516 224.642 230.948 222.723 231.015ZM247.633 229.67L243.594 222.846L241.72 221.91L233.478 210.469L242.433 210.158L246.515 217.061L248.346 217.918L256.508 229.362L247.633 229.67ZM233.761 230.151L241.506 218.035L246.065 222.56L241.996 229.865L233.761 230.151ZM247.996 221.692L243.437 217.168L247.19 209.993L255.425 209.707L247.996 221.692Z" fill="#1E1E1E"/>
</svg>
