<svg width="324" height="220" viewBox="0 0 324 220" fill="none" xmlns="http://www.w3.org/2000/svg">
<path d="M46.3396 62.1H1.07684C-3.25027 17.4702 17.6732 4.15257 33.5564 0.536729H210.89C219.476 0.536729 241.566 -0.298206 247.336 10.4084C253.105 21.1151 250.126 54.2109 249.525 69.9891H278.843C278.843 55.4508 282.121 21.2278 283.872 10.4084C285.624 -0.410923 305.331 0.48977 312.5 0.536729C308.508 42.2363 305.623 126.312 303.872 138.596C302.12 150.881 280.444 152.167 272.46 151.275L274.974 104.363H247.336L243.859 138.596C241.386 150.881 223.425 152.167 214.754 151.275L219.261 62.1H205.224C205.224 66.1572 200.888 69.1908 198.27 69.9891C204.451 74.638 205.61 98.5871 205.224 104.363C204.838 110.139 202.004 130.707 196.338 138.596C191.805 144.907 180.97 149.679 176.119 151.275H101.94L110.44 62.1H88.933C88.2461 72.6658 84.1857 107.058 81.9308 127.436C79.6096 148.415 71.5473 150.899 64.3355 151.275H36.2812L46.3396 62.1Z" fill="#1A1818" stroke="black"/>
<path d="M46.2695 174.699C45.4336 174.699 44.6992 174.539 44.0664 174.219C43.4336 173.891 42.9375 173.442 42.5781 172.871C42.2266 172.293 42.0508 171.633 42.0508 170.891V170.867C42.0508 170.102 42.2422 169.449 42.625 168.91C43.0078 168.363 43.5625 167.934 44.2891 167.621C45.0234 167.301 45.9141 167.109 46.9609 167.047L51.8359 166.742V168.863L47.4766 169.145C46.8047 169.184 46.293 169.34 45.9414 169.613C45.5977 169.879 45.4258 170.238 45.4258 170.692V170.703C45.4258 171.172 45.6016 171.539 45.9531 171.805C46.3125 172.07 46.7891 172.203 47.3828 172.203C47.8984 172.203 48.3555 172.102 48.7539 171.899C49.1602 171.695 49.4805 171.422 49.7148 171.078C49.9492 170.727 50.0664 170.332 50.0664 169.895V166.027C50.0664 165.473 49.8867 165.035 49.5273 164.715C49.1758 164.395 48.6602 164.234 47.9805 164.234C47.3477 164.234 46.8398 164.363 46.457 164.621C46.082 164.871 45.8477 165.195 45.7539 165.594L45.7305 165.699H42.5898L42.6016 165.559C42.6719 164.785 42.9336 164.106 43.3867 163.52C43.8477 162.926 44.4766 162.461 45.2734 162.125C46.0781 161.781 47.0312 161.609 48.1328 161.609C49.2266 161.609 50.1719 161.785 50.9688 162.137C51.7656 162.488 52.3828 162.981 52.8203 163.613C53.2578 164.246 53.4766 164.992 53.4766 165.852V174.5H50.0664V172.66H49.9727C49.7383 173.082 49.4336 173.445 49.0586 173.75C48.6914 174.055 48.2734 174.289 47.8047 174.453C47.3359 174.617 46.8242 174.699 46.2695 174.699ZM55.8789 174.5V161.879H59.3008V163.93H59.3945C59.7148 163.211 60.1953 162.645 60.8359 162.231C61.4766 161.817 62.2656 161.609 63.2031 161.609C64.5938 161.609 65.6641 162.027 66.4141 162.863C67.1719 163.699 67.5508 164.859 67.5508 166.344V174.5H64.1289V167.07C64.1289 166.234 63.9375 165.59 63.5547 165.137C63.1719 164.676 62.5898 164.445 61.8086 164.445C61.3008 164.445 60.8594 164.563 60.4844 164.797C60.1094 165.031 59.8164 165.359 59.6055 165.781C59.4023 166.195 59.3008 166.68 59.3008 167.234V174.5H55.8789ZM71.7109 178.707C71.4062 178.707 71.1055 178.695 70.8086 178.672C70.5117 178.649 70.2617 178.621 70.0586 178.59V176.035C70.1836 176.059 70.3398 176.078 70.5273 176.094C70.7148 176.117 70.9258 176.129 71.1602 176.129C71.6914 176.129 72.1133 176.039 72.4258 175.859C72.7383 175.68 72.9648 175.371 73.1055 174.934L73.2461 174.5L68.793 161.879H72.543L75.4258 172.496L74.9219 171.688H75.625L75.1094 172.496L77.9922 161.879H81.6016L77.2773 174.688C76.9414 175.695 76.5234 176.492 76.0234 177.078C75.5234 177.672 74.918 178.09 74.207 178.332C73.5039 178.582 72.6719 178.707 71.7109 178.707ZM88.082 174.723C86.6523 174.723 85.6016 174.434 84.9297 173.856C84.2578 173.277 83.9219 172.324 83.9219 170.996V164.457H82.1289V161.879H83.9219V158.809H87.3789V161.879H89.7461V164.457H87.3789V170.551C87.3789 171.129 87.5078 171.539 87.7656 171.781C88.0312 172.016 88.4297 172.133 88.9609 172.133C89.125 172.133 89.2656 172.129 89.3828 172.121C89.5078 172.106 89.6289 172.09 89.7461 172.074V174.582C89.5508 174.621 89.3125 174.652 89.0312 174.676C88.75 174.707 88.4336 174.723 88.082 174.723ZM91.9023 174.5V157.426H95.3242V164.012H95.418C95.7383 163.246 96.2227 162.656 96.8711 162.242C97.5195 161.82 98.3125 161.609 99.25 161.609C100.164 161.609 100.949 161.809 101.605 162.207C102.262 162.606 102.766 163.172 103.117 163.906C103.469 164.641 103.645 165.516 103.645 166.531V174.5H100.223V167.246C100.223 166.363 100.016 165.676 99.6016 165.184C99.1953 164.692 98.6016 164.445 97.8203 164.445C97.3125 164.445 96.8711 164.567 96.4961 164.809C96.1211 165.043 95.832 165.371 95.6289 165.793C95.4258 166.215 95.3242 166.703 95.3242 167.258V174.5H91.9023ZM106.094 174.5V161.879H109.516V174.5H106.094ZM107.805 160.203C107.289 160.203 106.852 160.027 106.492 159.676C106.141 159.317 105.965 158.891 105.965 158.399C105.965 157.899 106.141 157.473 106.492 157.121C106.852 156.77 107.289 156.594 107.805 156.594C108.328 156.594 108.766 156.77 109.117 157.121C109.477 157.473 109.656 157.899 109.656 158.399C109.656 158.891 109.477 159.317 109.117 159.676C108.766 160.027 108.328 160.203 107.805 160.203ZM112.012 174.5V161.879H115.434V163.93H115.527C115.848 163.211 116.328 162.645 116.969 162.231C117.609 161.817 118.398 161.609 119.336 161.609C120.727 161.609 121.797 162.027 122.547 162.863C123.305 163.699 123.684 164.859 123.684 166.344V174.5H120.262V167.07C120.262 166.234 120.07 165.59 119.688 165.137C119.305 164.676 118.723 164.445 117.941 164.445C117.434 164.445 116.992 164.563 116.617 164.797C116.242 165.031 115.949 165.359 115.738 165.781C115.535 166.195 115.434 166.68 115.434 167.234V174.5H112.012ZM131.91 178.895C130.754 178.895 129.75 178.734 128.898 178.414C128.047 178.102 127.371 177.672 126.871 177.125C126.371 176.586 126.066 175.977 125.957 175.297L125.945 175.203H129.285L129.32 175.274C129.445 175.594 129.73 175.871 130.176 176.106C130.621 176.34 131.207 176.457 131.934 176.457C132.816 176.457 133.492 176.246 133.961 175.824C134.43 175.402 134.664 174.84 134.664 174.137V172.121H134.57C134.352 172.567 134.051 172.949 133.668 173.27C133.293 173.582 132.855 173.824 132.355 173.996C131.855 174.168 131.301 174.254 130.691 174.254C129.645 174.254 128.734 174.004 127.961 173.504C127.195 172.996 126.605 172.277 126.191 171.348C125.785 170.418 125.582 169.313 125.582 168.031V168.008C125.582 166.688 125.789 165.551 126.203 164.598C126.625 163.645 127.223 162.914 127.996 162.406C128.77 161.891 129.688 161.633 130.75 161.633C131.344 161.633 131.887 161.731 132.379 161.926C132.871 162.121 133.301 162.399 133.668 162.758C134.043 163.109 134.344 163.531 134.57 164.024H134.664V161.879H138.086V174.137C138.086 175.082 137.836 175.91 137.336 176.621C136.836 177.34 136.121 177.899 135.191 178.297C134.27 178.695 133.176 178.895 131.91 178.895ZM131.875 171.723C132.445 171.723 132.941 171.574 133.363 171.277C133.785 170.981 134.109 170.563 134.336 170.024C134.57 169.477 134.688 168.832 134.688 168.09V168.078C134.688 167.336 134.57 166.695 134.336 166.156C134.102 165.609 133.773 165.192 133.352 164.902C132.938 164.606 132.445 164.457 131.875 164.457C131.297 164.457 130.797 164.606 130.375 164.902C129.953 165.192 129.629 165.606 129.402 166.145C129.176 166.684 129.062 167.324 129.062 168.067V168.09C129.062 168.832 129.176 169.477 129.402 170.024C129.629 170.57 129.953 170.992 130.375 171.289C130.797 171.578 131.297 171.723 131.875 171.723ZM149.254 174.699C148.418 174.699 147.684 174.539 147.051 174.219C146.418 173.891 145.922 173.442 145.562 172.871C145.211 172.293 145.035 171.633 145.035 170.891V170.867C145.035 170.102 145.227 169.449 145.609 168.91C145.992 168.363 146.547 167.934 147.273 167.621C148.008 167.301 148.898 167.109 149.945 167.047L154.82 166.742V168.863L150.461 169.145C149.789 169.184 149.277 169.34 148.926 169.613C148.582 169.879 148.41 170.238 148.41 170.692V170.703C148.41 171.172 148.586 171.539 148.938 171.805C149.297 172.07 149.773 172.203 150.367 172.203C150.883 172.203 151.34 172.102 151.738 171.899C152.145 171.695 152.465 171.422 152.699 171.078C152.934 170.727 153.051 170.332 153.051 169.895V166.027C153.051 165.473 152.871 165.035 152.512 164.715C152.16 164.395 151.645 164.234 150.965 164.234C150.332 164.234 149.824 164.363 149.441 164.621C149.066 164.871 148.832 165.195 148.738 165.594L148.715 165.699H145.574L145.586 165.559C145.656 164.785 145.918 164.106 146.371 163.52C146.832 162.926 147.461 162.461 148.258 162.125C149.062 161.781 150.016 161.609 151.117 161.609C152.211 161.609 153.156 161.785 153.953 162.137C154.75 162.488 155.367 162.981 155.805 163.613C156.242 164.246 156.461 164.992 156.461 165.852V174.5H153.051V172.66H152.957C152.723 173.082 152.418 173.445 152.043 173.75C151.676 174.055 151.258 174.289 150.789 174.453C150.32 174.617 149.809 174.699 149.254 174.699ZM158.863 174.5V161.879H162.285V163.93H162.379C162.699 163.211 163.18 162.645 163.82 162.231C164.461 161.817 165.25 161.609 166.188 161.609C167.578 161.609 168.648 162.027 169.398 162.863C170.156 163.699 170.535 164.859 170.535 166.344V174.5H167.113V167.07C167.113 166.234 166.922 165.59 166.539 165.137C166.156 164.676 165.574 164.445 164.793 164.445C164.285 164.445 163.844 164.563 163.469 164.797C163.094 165.031 162.801 165.359 162.59 165.781C162.387 166.195 162.285 166.68 162.285 167.234V174.5H158.863ZM178.68 174.758C177.406 174.758 176.301 174.496 175.363 173.973C174.426 173.449 173.703 172.699 173.195 171.723C172.688 170.738 172.434 169.563 172.434 168.195V168.172C172.434 166.813 172.691 165.645 173.207 164.668C173.723 163.684 174.445 162.93 175.375 162.406C176.312 161.875 177.414 161.609 178.68 161.609C179.945 161.609 181.043 161.875 181.973 162.406C182.91 162.93 183.637 163.68 184.152 164.656C184.668 165.633 184.926 166.805 184.926 168.172V168.195C184.926 169.57 184.672 170.746 184.164 171.723C183.656 172.699 182.934 173.449 181.996 173.973C181.066 174.496 179.961 174.758 178.68 174.758ZM178.691 172.074C179.262 172.074 179.75 171.922 180.156 171.617C180.57 171.313 180.887 170.871 181.105 170.293C181.332 169.715 181.445 169.016 181.445 168.195V168.172C181.445 167.352 181.332 166.652 181.105 166.074C180.879 165.496 180.559 165.055 180.145 164.75C179.73 164.445 179.242 164.293 178.68 164.293C178.125 164.293 177.637 164.449 177.215 164.762C176.801 165.067 176.48 165.508 176.254 166.086C176.027 166.656 175.914 167.352 175.914 168.172V168.195C175.914 169.016 176.027 169.715 176.254 170.293C176.48 170.871 176.801 171.313 177.215 171.617C177.629 171.922 178.121 172.074 178.691 172.074ZM186.871 174.5V161.879H190.293V163.93H190.387C190.707 163.211 191.188 162.645 191.828 162.231C192.469 161.817 193.258 161.609 194.195 161.609C195.586 161.609 196.656 162.027 197.406 162.863C198.164 163.699 198.543 164.859 198.543 166.344V174.5H195.121V167.07C195.121 166.234 194.93 165.59 194.547 165.137C194.164 164.676 193.582 164.445 192.801 164.445C192.293 164.445 191.852 164.563 191.477 164.797C191.102 165.031 190.809 165.359 190.598 165.781C190.395 166.195 190.293 166.68 190.293 167.234V174.5H186.871ZM202.703 178.707C202.398 178.707 202.098 178.695 201.801 178.672C201.504 178.649 201.254 178.621 201.051 178.59V176.035C201.176 176.059 201.332 176.078 201.52 176.094C201.707 176.117 201.918 176.129 202.152 176.129C202.684 176.129 203.105 176.039 203.418 175.859C203.73 175.68 203.957 175.371 204.098 174.934L204.238 174.5L199.785 161.879H203.535L206.418 172.496L205.914 171.688H206.617L206.102 172.496L208.984 161.879H212.594L208.27 174.688C207.934 175.695 207.516 176.492 207.016 177.078C206.516 177.672 205.91 178.09 205.199 178.332C204.496 178.582 203.664 178.707 202.703 178.707ZM214.012 174.5V161.879H217.434V163.977H217.527C217.785 163.258 218.227 162.684 218.852 162.254C219.477 161.824 220.211 161.609 221.055 161.609C221.641 161.609 222.168 161.711 222.637 161.914C223.113 162.117 223.512 162.41 223.832 162.793C224.16 163.168 224.395 163.629 224.535 164.176H224.629C224.824 163.652 225.109 163.199 225.484 162.817C225.859 162.434 226.309 162.137 226.832 161.926C227.355 161.715 227.922 161.609 228.531 161.609C229.359 161.609 230.082 161.789 230.699 162.149C231.316 162.5 231.797 162.992 232.141 163.625C232.484 164.258 232.656 165.004 232.656 165.863V174.5H229.234V166.719C229.234 166.227 229.152 165.813 228.988 165.477C228.832 165.141 228.602 164.887 228.297 164.715C227.992 164.535 227.613 164.445 227.16 164.445C226.73 164.445 226.352 164.547 226.023 164.75C225.695 164.953 225.441 165.231 225.262 165.582C225.082 165.934 224.992 166.344 224.992 166.813V174.5H221.676V166.613C221.676 166.152 221.594 165.762 221.43 165.442C221.266 165.121 221.031 164.875 220.727 164.703C220.422 164.531 220.055 164.445 219.625 164.445C219.195 164.445 218.816 164.551 218.488 164.762C218.16 164.973 217.902 165.262 217.715 165.629C217.527 165.988 217.434 166.406 217.434 166.883V174.5H214.012ZM240.789 174.758C239.516 174.758 238.41 174.496 237.473 173.973C236.535 173.449 235.812 172.699 235.305 171.723C234.797 170.738 234.543 169.563 234.543 168.195V168.172C234.543 166.813 234.801 165.645 235.316 164.668C235.832 163.684 236.555 162.93 237.484 162.406C238.422 161.875 239.523 161.609 240.789 161.609C242.055 161.609 243.152 161.875 244.082 162.406C245.02 162.93 245.746 163.68 246.262 164.656C246.777 165.633 247.035 166.805 247.035 168.172V168.195C247.035 169.57 246.781 170.746 246.273 171.723C245.766 172.699 245.043 173.449 244.105 173.973C243.176 174.496 242.07 174.758 240.789 174.758ZM240.801 172.074C241.371 172.074 241.859 171.922 242.266 171.617C242.68 171.313 242.996 170.871 243.215 170.293C243.441 169.715 243.555 169.016 243.555 168.195V168.172C243.555 167.352 243.441 166.652 243.215 166.074C242.988 165.496 242.668 165.055 242.254 164.75C241.84 164.445 241.352 164.293 240.789 164.293C240.234 164.293 239.746 164.449 239.324 164.762C238.91 165.067 238.59 165.508 238.363 166.086C238.137 166.656 238.023 167.352 238.023 168.172V168.195C238.023 169.016 238.137 169.715 238.363 170.293C238.59 170.871 238.91 171.313 239.324 171.617C239.738 171.922 240.23 172.074 240.801 172.074ZM253.258 174.758C252.328 174.758 251.539 174.57 250.891 174.195C250.242 173.82 249.75 173.277 249.414 172.567C249.078 171.856 248.91 171.008 248.91 170.024V161.879H252.332V169.309C252.332 170.145 252.523 170.789 252.906 171.242C253.289 171.695 253.867 171.922 254.641 171.922C255.031 171.922 255.379 171.856 255.684 171.723C255.996 171.59 256.262 171.402 256.48 171.16C256.707 170.91 256.875 170.617 256.984 170.281C257.102 169.938 257.16 169.555 257.16 169.133V161.879H260.582V174.5H257.16V172.449H257.066C256.855 172.926 256.57 173.34 256.211 173.692C255.859 174.035 255.438 174.301 254.945 174.488C254.453 174.668 253.891 174.758 253.258 174.758ZM268.199 174.758C267.043 174.758 266.055 174.594 265.234 174.266C264.422 173.93 263.785 173.465 263.324 172.871C262.871 172.277 262.602 171.59 262.516 170.809L262.504 170.715H265.844L265.867 170.809C265.984 171.285 266.234 171.66 266.617 171.934C267 172.207 267.531 172.344 268.211 172.344C268.648 172.344 269.02 172.289 269.324 172.18C269.637 172.07 269.879 171.918 270.051 171.723C270.223 171.52 270.309 171.281 270.309 171.008V170.996C270.309 170.66 270.184 170.387 269.934 170.176C269.684 169.965 269.246 169.793 268.621 169.66L266.488 169.203C265.676 169.031 264.996 168.785 264.449 168.465C263.902 168.137 263.492 167.731 263.219 167.246C262.953 166.762 262.82 166.207 262.82 165.582V165.57C262.82 164.766 263.035 164.07 263.465 163.484C263.902 162.891 264.516 162.43 265.305 162.102C266.102 161.774 267.031 161.609 268.094 161.609C269.211 161.609 270.16 161.789 270.941 162.149C271.723 162.5 272.32 162.973 272.734 163.567C273.156 164.16 273.379 164.82 273.402 165.547L273.414 165.652H270.25L270.238 165.57C270.176 165.133 269.961 164.77 269.594 164.481C269.234 164.184 268.734 164.035 268.094 164.035C267.703 164.035 267.359 164.09 267.062 164.199C266.773 164.309 266.551 164.465 266.395 164.668C266.238 164.871 266.16 165.109 266.16 165.383V165.395C266.16 165.613 266.215 165.809 266.324 165.981C266.434 166.145 266.613 166.289 266.863 166.414C267.113 166.539 267.449 166.649 267.871 166.742L270.016 167.188C271.328 167.469 272.273 167.883 272.852 168.43C273.438 168.977 273.73 169.715 273.73 170.645V170.656C273.73 171.484 273.492 172.207 273.016 172.824C272.547 173.434 271.898 173.91 271.07 174.254C270.242 174.59 269.285 174.758 268.199 174.758ZM275.723 174.5V157.426H279.145V174.5H275.723ZM283.562 178.707C283.258 178.707 282.957 178.695 282.66 178.672C282.363 178.649 282.113 178.621 281.91 178.59V176.035C282.035 176.059 282.191 176.078 282.379 176.094C282.566 176.117 282.777 176.129 283.012 176.129C283.543 176.129 283.965 176.039 284.277 175.859C284.59 175.68 284.816 175.371 284.957 174.934L285.098 174.5L280.645 161.879H284.395L287.277 172.496L286.773 171.688H287.477L286.961 172.496L289.844 161.879H293.453L289.129 174.688C288.793 175.695 288.375 176.492 287.875 177.078C287.375 177.672 286.77 178.09 286.059 178.332C285.355 178.582 284.523 178.707 283.562 178.707Z" fill="black"/>
</svg>
